HIERARCHY
ROOT hip
{
	OFFSET 0.000000 0.000000 0.000000 
	CHANNELS 6 Xposition Yposition Zposition Xrotation Zrotation Yrotation
	JOINT abdomen
	{
		OFFSET 0.000000 3.402643 0.000000 
		CHANNELS 3 Xrotation Zrotation Yrotation
		JOINT chest
		{
			OFFSET 0.000000 8.438565 -0.680529 
			CHANNELS 3 Xrotation Zrotation Yrotation
			JOINT neck
			{
				OFFSET 0.000000 10.207942 -0.272212 
				CHANNELS 3 Xrotation Zrotation Yrotation
				JOINT head
				{
					OFFSET 0.000000 3.130431 0.000000 
					CHANNELS 3 Xrotation Zrotation Yrotation
					End Site
					{
						OFFSET 0.000000 3.130435 0.000000 
					}
				}
			}
			JOINT lCollar
			{
				OFFSET 3.470700 6.669187 -0.816635 
				CHANNELS 3 Yrotation Zrotation Xrotation
				JOINT lShldr
				{
					OFFSET 3.198488 0.000000 0.000000 
					CHANNELS 3 Zrotation Yrotation Xrotation
					JOINT lForeArm
					{
						OFFSET 10.139888 0.000000 0.000000 
						CHANNELS 3 Yrotation Zrotation Xrotation
						JOINT lHand
						{
							OFFSET 8.370511 0.000000 0.000000 
							CHANNELS 3 Zrotation Yrotation Xrotation
							End Site
							{
								OFFSET 4.083176 0.000000 0.000000 
							}
						}
					}
				}
			}
			JOINT rCollar
			{
				OFFSET -3.470700 6.669187 -0.816635 
				CHANNELS 3 Yrotation Zrotation Xrotation
				JOINT rShldr
				{
					OFFSET -3.198488 0.000000 0.000000 
					CHANNELS 3 Zrotation Yrotation Xrotation
					JOINT rForeArm
					{
						OFFSET -10.139888 0.000000 0.000000 
						CHANNELS 3 Yrotation Zrotation Xrotation
						JOINT rHand
						{
							OFFSET -8.370511 0.000000 0.000000 
							CHANNELS 3 Zrotation Yrotation Xrotation
							End Site
							{
								OFFSET -4.083176 0.000000 0.000000 
							}
						}
					}
				}
			}
		}
	}
	JOINT lThigh
	{
		OFFSET 5.308129 -1.633274 1.361059 
		CHANNELS 3 Xrotation Zrotation Yrotation
		JOINT lShin
		{
			OFFSET -2.041588 -20.007561 0.000000 
			CHANNELS 3 Xrotation Zrotation Yrotation
			JOINT lFoot
			{
				OFFSET 0.000000 -19.190928 -1.224953 
				CHANNELS 3 Xrotation Yrotation Zrotation
				End Site
				{
					OFFSET 0.000000 -2.449906 4.627600 
				}
			}
		}
	}
	JOINT rThigh
	{
		OFFSET -5.308129 -1.633274 1.361059 
		CHANNELS 3 Xrotation Zrotation Yrotation
		JOINT rShin
		{
			OFFSET 2.041588 -20.007561 0.000000 
			CHANNELS 3 Xrotation Zrotation Yrotation
			JOINT rFoot
			{
				OFFSET 0.000000 -19.190928 -1.224953 
				CHANNELS 3 Xrotation Yrotation Zrotation
				End Site
				{
					OFFSET 0.000000 -2.449906 4.627600 
				}
			}
		}
	}
}
MOTION
Frames: 6
Frame Time: 0.033333
0.306719 49.690845 -3.800722 -7.812502 -0.038700 0.044372 0.000000 0.000000 0.000000 0.654297 -0.058590 -0.000679 7.626984 0.267726 -0.072025 6.191348 -0.400036 0.192632 -0.174983 10.552442 1.159089 -3.470552 10.962537 -8.622587 1.706467 -5.160325 13.358109 2.835362 -3.178221 -3.557167 0.536683 -9.275360 1.182621 2.105821 -10.447526 -6.661315 -1.987502 4.373206 11.683529 -1.724825 3.765248 -3.510930 9.210306 5.543216 2.723962 4.179848 -5.034689 -10.373705 -0.579453 0.000889 -0.386848 12.125677 -4.745227 -5.007747 -2.508037 4.146177 5.549833 -0.277978 -0.002862 -0.910603 
0.293126 49.694244 -3.799702 -7.812500 0.000000 0.048828 0.000000 0.000000 0.000000 0.605470 -0.107416 -0.010919 7.675733 0.279170 -0.014061 6.015613 -0.175602 0.213015 -0.267790 10.609344 1.127215 -3.435800 11.140068 -8.288101 1.631704 -5.314726 13.067120 2.624606 -3.886010 -3.554638 0.648724 -9.263590 1.154897 2.171952 -10.516485 -6.499115 -2.083979 4.435635 11.653756 -2.082034 3.674883 -3.532255 8.988486 5.505841 2.644100 4.644915 -5.000206 -10.351309 -0.606849 -0.009732 -0.390976 12.044177 -4.734337 -4.978674 -2.330654 4.092911 5.418347 -0.365629 0.009052 -0.969050 
0.296275 49.690720 -3.795738 -7.724609 0.000000 0.166016 0.000000 0.000000 0.000000 0.527344 -0.087887 -0.030121 7.568207 0.236562 0.046351 5.898434 0.087793 0.200930 -0.292952 10.687306 1.050701 -3.532841 11.108087 -8.772743 1.759332 -5.060834 14.306082 3.064825 -4.181525 -3.590139 0.587155 -9.274939 1.071491 2.211519 -10.584765 -6.501407 -2.102263 4.431781 11.566721 -2.021028 3.639492 -3.528188 9.060410 5.556184 2.629649 4.461738 -5.000095 -10.941022 -0.727530 -0.004977 -0.221788 11.847991 -4.772774 -5.030484 -2.049145 4.147527 5.505295 -0.378633 0.012370 -0.936449 
0.292121 49.704189 -3.784401 -7.597665 0.087119 0.242286 0.000000 0.000000 0.000000 0.410158 -0.156246 -0.059739 7.460598 0.216061 0.108791 5.820289 0.234099 0.281588 -0.302234 10.697420 0.941400 -3.482741 11.157370 -8.711918 1.797441 -5.026826 14.991761 3.259156 -4.619483 -3.601971 0.540546 -9.334793 0.962822 2.260509 -10.623812 -6.484540 -2.062907 4.422709 11.544281 -1.798376 3.525940 -3.515524 9.289392 5.485425 2.614671 3.713805 -5.055264 -10.804511 -0.649261 -0.005400 -0.211424 11.770563 -4.831277 -5.092099 -2.088402 4.167972 5.384476 -0.368244 -0.005854 -0.922480 
0.270602 49.693485 -3.785217 -7.666031 0.116140 0.248039 0.000000 0.000000 0.000000 0.449222 -0.224603 0.017732 7.490361 0.329273 0.162817 5.732421 0.019507 0.389647 -0.253128 10.873282 0.983988 -3.572008 11.049368 -8.774441 1.755390 -4.971211 15.532752 4.003467 -4.748767 -3.664141 0.584276 -9.236817 0.995933 2.277664 -10.739236 -6.877937 -2.090021 4.236665 11.858560 -1.753134 3.587408 -3.512632 9.011213 5.448116 2.555811 4.295002 -4.990128 -10.566873 -0.572240 0.016010 -0.391483 11.832742 -4.832717 -5.050756 -2.078787 4.119349 5.406566 -0.468470 0.004035 -0.992222 
0.239643 49.704437 -3.783570 -7.656266 0.116143 0.248059 0.000000 0.000000 0.000000 0.439456 -0.214837 -0.011450 7.460886 0.261456 0.182022 5.751945 -0.136549 0.436489 -0.180118 10.728189 0.967190 -3.389593 11.031827 -8.482259 1.692665 -5.072703 15.308512 4.336884 -4.590607 -3.683450 0.534856 -9.393793 0.982798 2.361095 -10.691489 -6.597218 -1.994693 4.365073 11.507669 -1.962593 3.486532 -3.524728 9.069627 5.506742 2.661905 4.157743 -5.067817 -10.488887 -0.507749 0.003750 -0.406582 11.917852 -4.783093 -5.020295 -2.272111 4.114166 5.460840 -0.466636 -0.013779 -1.040893 
